Cowboys.And.Aliens.2011.EXTENDED.720p.Bluray.x264.anoXmous

Format                           : MPEG-4
Format profile                   : Base Media
Codec ID                         : isom
File size                        : 699 MiB
Duration                         : 2h 15mn
Overall bit rate mode            : Variable
Overall bit rate                 : 723 Kbps


Video
ID                               : 1
Format                           : AVC
Format/Info                      : Advanced Video Codec
Format profile                   : High@L4.1
Format settings, CABAC           : Yes
Format settings, ReFrames        : 4 frames
Codec ID                         : avc1
Codec ID/Info                    : Advanced Video Coding
Duration                         : 2h 15mn
Bit rate                         : 649 Kbps
Maximum bit rate                 : 4 151 Kbps
Width                            : 1 280 pixels
Height                           : 528 pixels
Display aspect ratio             : 2.40:1
Frame rate mode                  : Constant
Frame rate                       : 23.976 fps
Color space                      : YUV
Chroma subsampling               : 4:2:0
Bit depth                        : 8 bits
Scan type                        : Progressive
Bits/(Pixel*Frame)               : 0.040
Stream size                      : 628 MiB (90%)
Writing library                  : x264 core 120 r2120 0c7dab9


Audio
ID                               : 2
Format                           : AAC
Format/Info                      : Advanced Audio Codec
Format profile                   : HE-AAC / LC
Codec ID                         : 40
Duration                         : 2h 15mn
Bit rate mode                    : Variable
Bit rate                         : 72.0 Kbps
Maximum bit rate                 : 103 Kbps
Channel(s)                       : 2 channels
Channel positions                : Front: L R
Sampling rate                    : 48.0 KHz / 24.0 KHz
Compression mode                 : Lossy
Stream size                      : 68.6 MiB (10%)
Encoded date                     : UTC 2012-01-04 23:13:11
Tagged date                      : UTC 2012-01-04 23:13:18


SUB                              :

Cowboys.And.Aliens.2011.EXTENDED.720p.Bluray.x264.anoXmous_eng.srt
Cowboys.And.Aliens.2011.EXTENDED.720p.Bluray.x264.anoXmous_swe.srt
 
http://www.imdb.com/title/tt0409847/

This work very fine with PSP and XBOX